<svg version="1" xmlns="http://www.w3.org/2000/svg" width="682.667" height="682.667" viewBox="0 0 512.000000 512.000000"><path d="M12.3 30C8 31.9 6 35 4.4 42.2 3.5 46.3 3.1 79 3.9 79c.3 0 .6 1.9.7 4.3 0 2.3.4 6.7.8 9.7.4 3 .9 6.8 1.1 8.5.2 1.6.6 4.3.9 6 .3 1.6.8 4.8 1.2 7 .3 2.2.7 4.4.8 5 .2.5.6 3.2 1.1 6 .4 2.7 1 5.4 1.4 6 .3.5.7 2.3.8 4 .5 5.1.6 5.5 1.3 5.5.3 0 .7 1.6.8 3.7.2 2 .6 4.1 1 4.7.7 1.1 1 2.3 1.7 6.6.2 1.4.8 3.8 1.4 5.3.6 1.6.9 3.2.6 3.7-.3.5-.1 1.1.4 1.4.7.5 1.5 2.9 2.7 9 .3 1.1.8 2.4 1.3 3 .5.6 1.1 2.8 1.5 4.8.4 2.1 1 3.8 1.4 3.8.4 0 .8.8.9 1.8.1 1 1.3 4.3 2.7 7.4 3 6.5 4.9 11.3 4.5 11.3-.2 0 1.1 2.1 2.9 4.7 1.8 2.6 3.2 5.1 3.2 5.6 0 1.3 8 12.3 11.2 15.4 1.5 1.4 2.8 3.3 2.8 4.1 0 1.4-3.6 8.5-5 9.7-.3.3-2 3.4-3.8 7-1.8 3.6-4.8 9.3-6.6 12.7l-3.4 6.2 8.9-.2c5.2-.1 9.1.2 9.3.8.3.6.5.5.5-.1.1-.8 1.2-.9 3.6-.4 1.9.4 3.5.5 3.5.1s1.3-.6 2.8-.3l2.8.4-4.3 4.6c-2.4 2.5-4.3 4.9-4.3 5.4 0 .4-.7.8-1.6.8-.8 0-1.2.4-.9 1 .3.5.1 1-.5 1s-.9.4-.6.8c.3.5-.3 1.6-1.2 2.5-2.8 2.6-3.9 4.1-10.8 15.3-8.6 13.9-11.6 19.4-10.8 19.4.4 0 .1.8-.7 1.7-1.9 2.3-5.6 10-6.4 13.6-.4 1.5-1.1 3-1.6 3.3-.5.3-.7 1-.4 1.5.4.5.1.9-.5.9s-.9.4-.5.9c.3.5.1 1.2-.5 1.6-.6.4-.8 1.1-.5 1.6.4.5.1.9-.6.9-.8 0-.8.4.1 1.5 1 1.2 1 1.5 0 1.5-.8 0-1 .3-.7.6.3.4.2 1.5-.3 2.5-.6.9-1.2 3.7-1.4 6.1-.3 2.4-.5 4.3-.6 4.3-.1 0-.3.8-.5 1.8-.2 1.3.1 1.7 1.2 1.3.8-.3 2.6-.9 3.9-1.2 1.3-.3 2.4-1 2.4-1.5s.3-.8.8-.7c.4 0 1.4-.1 2.2-.4 4.7-1.8 5.6-2.1 6.8-2.5.6-.1 1.8-.5 2.5-.6.6-.2 1.9-.7 2.7-1 5-1.8 19.4-3.4 17.2-1.9-.8.5-1.3 1.2-1.3 1.6.1.3.1.7 0 .8 0 .2-.2 1-.4 1.8s-1.3 5.5-2.5 10.5c-2.3 9.6-3.4 23.1-1.9 24.1.5.3.9 0 .9-.6s.5-.8 1.1-.4c.6.3 1.4.2 1.8-.3.6-.8 16-7.1 19.1-7.7.8-.2 2.2-.6 3-.9 6.4-2.6 20.2-4.9 29-4.9 6.4.1 20.7 2.5 23.9 4.2 3.6 1.9 9.7 4.4 10.6 4.5 1 0 4.4 6.6 5.1 9.8.6 3.5 8.5 18.2 15 28 5.7 8.4 20.9 25.7 22.7 25.7.3 0 1.9 1.2 3.4 2.6 10.4 9.8 36.5 21.9 49.1 22.7.6 0 1.2.3 1.2.6 0 .7 3 .9 17 1.2 10 .2 20.7-.7 24.3-2 1.2-.5 2.5-.9 3-.9.4 0 3.2-.8 6.2-1.7 3-.8 5.8-1.6 6.2-1.7 4.7-1.1 25.6-13.3 29.6-17.3.9-.8 1.8-1.5 2.1-1.5.9 0 12.7-12.1 17.3-17.6 6.1-7.3 15.3-21.5 14.7-22.5-.3-.5-.1-.9.4-.9 1 0 3.8-6 3.4-7.3-.1-.4.2-.7.7-.7 1 0 2.7-3.9 2.3-5.3-.1-.4.2-.7.7-.7.9 0 2.6-5.7 1.9-6.2-.1-.2.7-1.7 2-3.5 2.1-3 12.2-8.8 17.4-9.9 6.8-1.5 12.6-2.1 16.7-1.9 6 .4 15.2 1.5 17.3 2.1.9.3 2.5.7 3.5.9 5.2 1.1 16.9 5.2 26 9.1 5.6 2.4 10.4 4.4 10.7 4.4 1.3 0-.9-25.9-2.3-27-.3-.3-.7-1.8-.9-3.5-.2-1.6-.7-3.2-1-3.5-.4-.3-.8-1.6-1-2.9-.2-2.3-.1-2.4 5-1.6 2.9.4 6.1.8 7.1.8.9.1 1.7.5 1.7 1s.7.7 1.5.4c.8-.4 1.7-.2 2 .4.4.5 1.1.7 1.6.4.5-.4.9-.1.9.5s.4.9.9.5c.5-.3 3.6.7 6.8 2.1 3.2 1.5 6 2.8 6.3 2.8.3.1 1.1.5 1.8.9 2.1 1.4 2.9-.1 2.5-5-.2-2.6-.6-5.3-.7-5.8-.2-.6-.5-1.5-.6-2-.1-.6-.6-2-1.1-3.2-.6-1.5-.5-2.3.2-2.3.8 0 .8-.4 0-1.3-.6-.8-.8-1.7-.4-2 .3-.4.1-.7-.6-.7s-.9-.5-.6-1c.3-.6.1-1-.4-1-.6 0-1-.3-1-.8.1-.4 0-1-.1-1.5-.1-.4-.3-1-.5-1.5-3.1-11.3-24.4-47.5-33.7-57.4-1-1-1.6-1.8-1.3-1.8.3 0-1-1.6-3-3.5-1.9-2-3.5-4-3.5-4.5 0-.6 1.9-1 4.3-1.1 2.3 0 5.9-.1 8-.2 2-.1 3.9.2 4.1.8.3.7.5.7.5 0 .1-.6 2.7-.9 6.1-.8 5.9.2 7.4-.7 5.1-3.3-.4-.5-2.8-4.7-5.3-9.4-7.9-14.8-11-20.5-11.9-21.6-.5-.6-.4-1.5.3-2.2.7-.7 1-1.2.7-1.2-.3 0 1.6-2.3 4.1-5 7-7.5 14.1-20.5 20-36.5.4-1.1 1.3-3.3 1.9-4.8.6-1.6.9-3.3.6-3.8-.4-.5-.2-.9.2-.9.7 0 3.1-6.5 4.9-13.5.2-.6 1-3.7 2-7 .9-3.3 1.7-6.5 1.9-7 .1-.6.5-1.7.8-2.5.3-.8.8-2.9 1.1-4.5.4-1.7.8-3.9 1.1-5 1.1-4.6 1.7-7.1 2-9 .3-1.1.6-2.7.8-3.5.6-2.5 1.8-8.3 2.3-11.5 1.1-6.5 1.4-8.1 1.8-10 .2-1.1.5-2 .6-2 .1 0 .3-1.1.4-2.5.8-7.4 1.8-14.8 2.3-17.3 1.7-9.1 2.1-34.6.7-43.7-1.5-9.3-2.1-10.9-5.3-13.7-2-1.7-3.5-2.1-7.1-1.9-2.5.2-5.2.6-6 .9-.8.4-2.6.8-4 1.1-5.3 1-21.1 7.2-34 13.4-3 1.5-5.7 2.7-6 2.7-1.6.2-35.6 18-38 19.9-.8.7-3.3 2.1-5.5 3.1-2.2 1.1-4.5 2.5-5.1 3.1-.7.6-2.6 1.7-4.3 2.4-1.7.7-3.1 1.7-3.1 2.2 0 .5-.4.7-.9.4-.5-.4-1.1-.3-1.3.1-.3.8-21.6 15.2-25 16.9-.9.5-1.8 1.3-1.9 1.9-.2.5-1 .9-1.7.7-.8-.2-1.1.1-.7.7.3.6-.1 1.1-.9 1.1-.9 0-1.6.4-1.6 1 0 .5-.4 1-1 1s-1.8.8-2.9 1.7c-1 1-4.2 3.8-7.1 6.3-2.9 2.5-7.4 6.7-10 9.4l-4.7 4.8-7.4-1.2c-4.1-.7-8.3-1.4-9.4-1.6-2.9-.6-13.4-1.6-18.2-1.8-2.4 0-4.3-.3-4.3-.6 0-.8-39.9-1.5-40.6-.7-.3.3-2 .1-3.9-.3s-3.6-.5-3.9-.3c-.3.3-5.2.7-10.8.9-15.3.6-29.5 2.2-42.5 4.9l-6.2 1.2-4.3-4.6c-5.5-5.9-17.3-16.4-22-19.6-11.1-7.5-20.4-13.9-20.8-14.4-.3-.3-1.4-1.1-2.5-1.8s-6.5-3.9-12-7.2c-5.5-3.3-10.5-6.4-11-6.8-2.5-1.8-7.2-4.5-9.7-5.4-1.6-.6-2.8-1.5-2.8-2s-.9-.9-1.9-.9c-1.1 0-2.1-.4-2.3-.8-.5-1.3-22.5-12.2-23.2-11.5-.3.4-.6.2-.6-.4 0-.6-2.4-2.1-5.2-3.3-2.9-1.2-8.4-3.7-12.3-5.5C40.8 35.5 24.2 30 19 29.8c-.8-.1-1.7-.5-2-.9-.3-.4-2.4.1-4.7 1.1z"/></svg>